<svg width="841.89" height="300" xmlns="http://www.w3.org/2000/svg">

 <g>
  <title>background</title>
  <rect fill="none" id="canvas_background" height="302" width="843.89" y="-1" x="-1"/>
 </g>
 <g>
  <title>Layer 1</title>
  <g id="logoGT">
   <g id="svg_1">
    <rect id="svg_2" height="8.889" width="8.9" fill="#A09FA4" y="50.086" x="25.311"/>
    <rect id="svg_3" height="53.615" width="53.356" fill="#60728B" y="59.059" x="34.21"/>
    <rect id="svg_4" height="53.473" width="53.364" fill="#60728B" y="58.976" x="96.459"/>
    <rect id="svg_5" height="53.452" width="53.364" fill="#60728B" y="58.976" x="158.712"/>
    <rect id="svg_6" height="115.612" width="53.323" fill="#60728B" y="121.317" x="96.459"/>
    <rect id="svg_7" height="8.888" width="8.9" fill="#A09FA4" y="236.929" x="25.311"/>
    <rect id="svg_8" height="8.888" width="8.899" fill="#A09FA4" y="236.929" x="87.554"/>
    <rect id="svg_9" height="8.888" width="8.892" fill="#A09FA4" y="236.929" x="149.852"/>
    <rect id="svg_10" height="8.888" width="8.889" fill="#A09FA4" y="236.929" x="211.931"/>
    <rect id="svg_11" height="8.897" width="8.9" fill="#A09FA4" y="174.677" x="25.311"/>
    <rect id="svg_12" height="8.897" width="8.889" fill="#A09FA4" y="174.677" x="87.605"/>
    <rect id="svg_13" height="8.897" width="8.894" fill="#A09FA4" y="174.677" x="149.782"/>
    <rect id="svg_14" height="8.897" width="8.889" fill="#A09FA4" y="174.677" x="212.077"/>
    <rect id="svg_15" height="8.893" width="8.889" fill="#A09FA4" y="112.424" x="212.752"/>
    <rect id="svg_16" height="8.893" width="8.889" fill="#A09FA4" y="112.424" x="149.823"/>
    <rect id="svg_17" height="8.893" width="8.892" fill="#A09FA4" y="112.424" x="87.567"/>
    <rect id="svg_18" height="8.893" width="8.891" fill="#A09FA4" y="112.424" x="25.295"/>
    <rect id="svg_19" height="8.889" width="8.892" fill="#A09FA4" y="50.086" x="87.567"/>
    <rect id="svg_20" height="8.889" width="8.889" fill="#A09FA4" y="50.086" x="149.823"/>
    <rect id="svg_21" height="8.889" width="8.889" fill="#A09FA4" y="50.086" x="212.077"/>
   </g>
   <path id="svg_22" d="m630.512,228.861l-14.456,13.395l-52.844,0l-12.734,-12.686l0,-50.443l14.019,0l-0.095,-13.442l51.395,0l14.716,14.881l0,48.295l-0.001,0zm-13.635,-1.846l0,-47.889l-52.381,0l0,47.889l52.381,0z" fill="#60728B" clip-rule="evenodd" fill-rule="evenodd"/>
   <path id="svg_23" d="m377.271,211.183l0,16.771l57.59,0l0,14.302l-71.148,0l0,-15.956l0,-15.116l0,-15.122l0,-16.935l13.558,0l-0.097,-13.308l57.8,0l0,13.308l-57.703,0l0,16.935l0,15.121zm16.679,-12.778l30.235,0l0,15.12l-30.235,0l0,-15.12z" fill="#60728B"/>
   <polygon id="svg_24" points="345.406005859375,179.12600708007812 313.34100341796875,179.12600708007812 313.34100341796875,242.2550048828125 298.71099853515625,242.2550048828125 298.71099853515625,179.12600708007812 265.3739929199219,179.12600708007812 265.3739929199219,165.6929931640625 265.3739929199219,165.6929931640625 345.406005859375,165.6929931640625 " fill="#60728B" clip-rule="evenodd" fill-rule="evenodd"/>
   <polygon id="svg_25" points="532.6829833984375,242.2550048828125 465.2909851074219,242.2550048828125 452.64599609375,228.8780059814453 452.64599609375,179.13099670410156 466.7619934082031,179.13099670410156 466.7619934082031,165.81199645996094 532.6829833984375,165.81199645996094 532.6829833984375,179.12600708007812 466.7619934082031,179.13099670410156 466.7619934082031,228 532.6829833984375,228 " fill="#60728B" clip-rule="evenodd" fill-rule="evenodd"/>
   <polygon id="svg_26" points="727.4099731445312,200.11000061035156 713.8569946289062,211.0800018310547 661.6279907226562,211.08299255371094 661.5880126953125,241.41700744628906 648.2999877929688,241.41200256347656 648.2999877929688,197.0659942626953 714.614013671875,197.0659942626953 714.614013671875,179.13099670410156 648.2999877929688,179.12600708007812 648.2999877929688,165.6840057373047 713.64599609375,165.6840057373047 727.4099731445312,179.45599365234375 " fill="#60728B" clip-rule="evenodd" fill-rule="evenodd"/>
   <polygon id="svg_27" points="746.1129760742188,200.11000061035156 746.1129760742188,165.6840057373047 760.1920166015625,165.6840057373047 760.1920166015625,197.27499389648438 812.780029296875,197.27499389648438 812.791015625,165.70700073242188 825.9730224609375,165.70700073242188 825.9730224609375,227.75 811.56298828125,241.54600524902344 761.1929931640625,241.54600524902344 761.1929931640625,227.92799377441406 810.176025390625,227.94900512695312 810.1690063476562,211.2530059814453 759.885986328125,211.2429962158203 " fill="#60728B"/>
   <path id="svg_28" d="m301.458,133.401l-5.149,5.55l-7.694,0l0,-5.55l7.622,0l0,-8.946l-24.927,0l-5.424,-5.622l0,-27.815l5.424,-5.752l24.724,0l5.424,5.752l0,42.383zm-5.222,-14.637l0,-27.813l-25.061,0l0,27.813l25.061,0z" fill="#A09FA4" clip-rule="evenodd" fill-rule="evenodd"/>
   <polygon id="svg_29" points="354.8179931640625,91.02299499511719 324.6730041503906,91.02299499511719 324.6730041503906,125.47100067138672 319.2489929199219,125.47100067138672 319.2489929199219,91.16699981689453 324.74200439453125,85.11699676513672 354.8179931640625,85.11699676513672 " fill="#A09FA4" clip-rule="evenodd" fill-rule="evenodd"/>
   <polygon id="svg_30" points="409.1080017089844,119.85199737548828 403.6090087890625,125.47100067138672 377.9580078125,125.47100067138672 372.6029968261719,119.70700073242188 372.6029968261719,85.26499938964844 378.03399658203125,85.26499938964844 378.03399658203125,119.56500244140625 403.7460021972656,119.56500244140625 403.7460021972656,85.26499938964844 409.1080017089844,85.26499938964844 " fill="#A09FA4" clip-rule="evenodd" fill-rule="evenodd"/>
   <polygon id="svg_31" points="462.3940124511719,119.70700073242188 457.0459899902344,125.54499816894531 431.3919982910156,125.54499816894531 431.3919982910156,140.41799926757812 425.9649963378906,140.41799926757812 425.9649963378906,119.70700073242188 457.0459899902344,119.70700073242188 457.0459899902344,90.88499450683594 425.9649963378906,90.88499450683594 425.9649963378906,85.26499938964844 457.1809997558594,85.26499938964844 462.3940124511719,91.16699981689453 " fill="#A09FA4" clip-rule="evenodd" fill-rule="evenodd"/>
   <path id="svg_32" d="m515.963,119.707l-5.282,5.764l-25.647,0l-5.57,-5.764l0,-28.54l5.57,-5.978l25.513,0l5.417,5.978l0,28.54l-0.001,0zm-5.362,-0.142l0,-28.472l-25.705,0l0,28.472l25.705,0z" fill="#A09FA4" clip-rule="evenodd" fill-rule="evenodd"/>
  </g>
 </g>
</svg>