<svg xmlns="http://www.w3.org/2000/svg" xmlns:xlink="http://www.w3.org/1999/xlink" version="1.1" width="192" height="192" style=""><rect id="backgroundrect" width="100%" height="100%" x="0" y="0" fill="none" stroke="none"/>
  
<g class="currentLayer" style=""><title>Layer 1</title>
    <path d="M0,192v-192h192v192z" fill="none" id="svg_2" class=""/>
    <g id="original-icon" fill="#FFFFFF" opacity="0" visibility="hidden" class="">
      <path d="M96,7.68c-48.73231,0 -88.32,39.58769 -88.32,88.32c0,48.73231 39.58769,88.32 88.32,88.32c48.73231,0 88.32,-39.58769 88.32,-88.32c0,-48.73231 -39.58769,-88.32 -88.32,-88.32zM92.16,15.81v34.0275h-27.48c1.45055,-4.27868 3.08933,-8.25616 4.89,-11.8575c6.3194,-12.63881 14.32692,-20.33269 22.59,-22.17zM99.84,15.81c8.26307,1.83731 16.2706,9.53119 22.59,22.17c1.80067,3.60134 3.43945,7.57882 4.89,11.8575h-27.48zM73.6575,18.51c-4.13882,4.34579 -7.82935,9.77869 -10.9575,16.035c-2.31805,4.63611 -4.32733,9.79182 -6.0675,15.2925h-26.7225c10.4441,-14.93481 25.78751,-26.16909 43.7475,-31.3275zM118.3425,18.51c17.95999,5.15841 33.3034,16.39269 43.7475,31.3275h-26.7225c-1.74017,-5.50068 -3.74945,-10.65639 -6.0675,-15.2925c-3.12815,-6.25631 -6.81868,-11.68921 -10.9575,-16.035zM25.0125,57.6825h29.415c-2.60579,10.51546 -4.1191,22.17087 -4.395,34.4775h-34.5525c0.58345,-12.43873 3.94933,-24.14328 9.5325,-34.4775zM62.355,57.6825h29.805v34.4775h-34.44c0.2943,-12.4302 1.91685,-24.15237 4.635,-34.4775zM99.84,57.6825h29.805c2.71815,10.32513 4.3407,22.0473 4.635,34.4775h-34.44zM137.5725,57.6825h29.415c5.58318,10.33422 8.94905,22.03877 9.5325,34.4775h-34.5525c-0.2759,-12.30664 -1.78921,-23.96205 -4.395,-34.4775zM15.5175,99.84h34.5c0.26909,12.31796 1.80342,23.95886 4.41,34.4775h-29.4075c-5.58513,-10.33015 -8.91822,-22.0395 -9.5025,-34.4775zM57.6975,99.84h34.4625v34.4775h-29.805c-2.71927,-10.32937 -4.36794,-22.03748 -4.6575,-34.4775zM99.84,99.84h34.4625c-0.28956,12.44002 -1.93823,24.14813 -4.6575,34.4775h-29.805zM141.9825,99.84h34.5c-0.58428,12.438 -3.91736,24.14736 -9.5025,34.4775h-29.4075c2.60658,-10.51864 4.14091,-22.15954 4.41,-34.4775zM29.9325,142.1625h26.7c1.74017,5.50068 3.74945,10.65639 6.0675,15.2925c3.12815,6.25631 6.81868,11.68921 10.9575,16.035c-17.95378,-5.15662 -33.27911,-16.40591 -43.725,-31.3275zM64.68,142.1625h27.48v34.0275c-8.26307,-1.83731 -16.2706,-9.53119 -22.59,-22.17c-1.80067,-3.60134 -3.43945,-7.57882 -4.89,-11.8575zM99.84,142.1625h27.48c-1.45055,4.27868 -3.08933,8.25616 -4.89,11.8575c-6.3194,12.63881 -14.32692,20.33268 -22.59,22.17zM135.3675,142.1625h26.7c-10.44589,14.92159 -25.77122,26.17088 -43.725,31.3275c4.13882,-4.34579 7.82935,-9.77869 10.9575,-16.035c2.31805,-4.63611 4.32733,-9.79182 6.0675,-15.2925z" id="svg_3">
      </path>
    </g>
    <g id="subtracted-icon" fill="#e76767" class="" fill-opacity="1">
      <path d="M184.32,96c0,7.69261 -0.98645,15.15736 -2.8396,22.2745c-1.85577,-2.59064 -3.97259,-4.98317 -6.31115,-7.13826c0.69017,-3.68314 1.1328,-7.45494 1.31324,-11.29624l-23.32607,0c-2.96143,-0.60318 -6.02373,-0.92 -9.15643,-0.92c-3.32484,0 -6.57038,0.35688 -9.7002,1.03421c0.00091,-0.03806 0.00181,-0.07614 0.0027,-0.11421h-34.4625v32.02114c-1.24868,4.16781 -1.92,8.57874 -1.92,13.13886c0,4.56012 0.67132,8.97105 1.92,13.13886v18.05114c2.54324,-0.56549 5.06227,-1.68579 7.51532,-3.33429c2.61582,3.42803 5.69974,6.48218 9.15411,9.06477c-6.5829,1.56884 -13.45022,2.39953 -20.50942,2.39953c-48.73231,0 -88.32,-39.58769 -88.32,-88.32c0,-48.73231 39.58769,-88.32 88.32,-88.32c48.73231,0 88.32,39.58769 88.32,88.32zM69.57,37.98c-1.80067,3.60134 -3.43945,7.57882 -4.89,11.8575h27.48v-34.0275c-8.26307,1.83731 -16.2706,9.53119 -22.59,22.17zM99.84,49.8375h27.48c-1.45055,-4.27868 -3.08933,-8.25616 -4.89,-11.8575c-6.3194,-12.63881 -14.32692,-20.33269 -22.59,-22.17zM29.91,49.8375h26.7225c1.74017,-5.50068 3.74945,-10.65639 6.0675,-15.2925c3.12815,-6.25631 6.81868,-11.68921 10.9575,-16.035c-17.95999,5.15841 -33.3034,16.39269 -43.7475,31.3275zM129.3,34.545c2.31805,4.63611 4.32733,9.79182 6.0675,15.2925h26.7225c-10.4441,-14.93481 -25.78751,-26.16909 -43.7475,-31.3275c4.13882,4.34579 7.82935,9.77869 10.9575,16.035zM15.48,92.16h34.5525c0.2759,-12.30664 1.78921,-23.96205 4.395,-34.4775h-29.415c-5.58317,10.33422 -8.94905,22.03877 -9.5325,34.4775zM57.72,92.16h34.44v-34.4775h-29.805c-2.71815,10.32513 -4.3407,22.0473 -4.635,34.4775zM99.84,92.16h34.44c-0.2943,-12.4302 -1.91685,-24.15237 -4.635,-34.4775h-29.805zM141.9675,92.16h34.5525c-0.58345,-12.43873 -3.94932,-24.14328 -9.5325,-34.4775h-29.415c2.60579,10.51546 4.1191,22.17087 4.395,34.4775zM25.02,134.3175h29.4075c-2.60658,-10.51864 -4.14091,-22.15954 -4.41,-34.4775h-34.5c0.58428,12.438 3.91737,24.14736 9.5025,34.4775zM62.355,134.3175h29.805v-34.4775h-34.4625c0.28956,12.44002 1.93823,24.14813 4.6575,34.4775zM73.6575,173.49c-4.13882,-4.34579 -7.82935,-9.77869 -10.9575,-16.035c-2.31805,-4.63611 -4.32733,-9.79182 -6.0675,-15.2925h-26.7c10.44589,14.92159 25.77122,26.17088 43.725,31.3275zM69.57,154.02c6.3194,12.63881 14.32692,20.33268 22.59,22.17v-34.0275h-27.48c1.45055,4.27868 3.08933,8.25616 4.89,11.8575z" id="svg_4" fill="#e76767" fill-opacity="1">
      </path>
    </g>
    <g id="svg_5" class="" fill="#6d6d6d" fill-opacity="1">
      <g fill="#6d6d6d" id="svg_6" fill-opacity="1">
        <g id="Слой_2" font-family="-apple-system, BlinkMacSystemFont, &quot;San Francisco&quot;, HelveticaNeue-Light, &quot;Helvetica Neue Light&quot;, &quot;Helvetica Neue&quot;, &quot;Segoe UI&quot;, &quot;Fira Sans&quot;, Roboto, Oxygen, Ubuntu, &quot;Droid Sans&quot;, Arial, sans-serif" font-weight="400" font-size="16" text-anchor="start" visibility="hidden" fill="#6d6d6d" fill-opacity="1"/>
        <g id="Android_x5F_4" font-family="-apple-system, BlinkMacSystemFont, &quot;San Francisco&quot;, HelveticaNeue-Light, &quot;Helvetica Neue Light&quot;, &quot;Helvetica Neue&quot;, &quot;Segoe UI&quot;, &quot;Fira Sans&quot;, Roboto, Oxygen, Ubuntu, &quot;Droid Sans&quot;, Arial, sans-serif" font-weight="400" font-size="16" text-anchor="start" visibility="hidden" fill="#6d6d6d" fill-opacity="1"/>
        <g id="Android_x5F_5" font-family="-apple-system, BlinkMacSystemFont, &quot;San Francisco&quot;, HelveticaNeue-Light, &quot;Helvetica Neue Light&quot;, &quot;Helvetica Neue&quot;, &quot;Segoe UI&quot;, &quot;Fira Sans&quot;, Roboto, Oxygen, Ubuntu, &quot;Droid Sans&quot;, Arial, sans-serif" font-weight="400" font-size="16" text-anchor="start" visibility="hidden" fill="#6d6d6d" fill-opacity="1"/>
        <g id="Windows_x5F_8" font-family="-apple-system, BlinkMacSystemFont, &quot;San Francisco&quot;, HelveticaNeue-Light, &quot;Helvetica Neue Light&quot;, &quot;Helvetica Neue&quot;, &quot;Segoe UI&quot;, &quot;Fira Sans&quot;, Roboto, Oxygen, Ubuntu, &quot;Droid Sans&quot;, Arial, sans-serif" font-weight="400" font-size="16" text-anchor="start" visibility="hidden" fill="#6d6d6d" fill-opacity="1"/>
        <g id="Windows_x5F_10" font-family="-apple-system, BlinkMacSystemFont, &quot;San Francisco&quot;, HelveticaNeue-Light, &quot;Helvetica Neue Light&quot;, &quot;Helvetica Neue&quot;, &quot;Segoe UI&quot;, &quot;Fira Sans&quot;, Roboto, Oxygen, Ubuntu, &quot;Droid Sans&quot;, Arial, sans-serif" font-weight="400" font-size="16" text-anchor="start" visibility="hidden" fill="#6d6d6d" fill-opacity="1"/>
        <g id="Color" font-family="-apple-system, BlinkMacSystemFont, &quot;San Francisco&quot;, HelveticaNeue-Light, &quot;Helvetica Neue Light&quot;, &quot;Helvetica Neue&quot;, &quot;Segoe UI&quot;, &quot;Fira Sans&quot;, Roboto, Oxygen, Ubuntu, &quot;Droid Sans&quot;, Arial, sans-serif" font-weight="400" font-size="16" text-anchor="start" visibility="hidden" fill="#6d6d6d" fill-opacity="1"/>
        <g id="IOS" font-family="-apple-system, BlinkMacSystemFont, &quot;San Francisco&quot;, HelveticaNeue-Light, &quot;Helvetica Neue Light&quot;, &quot;Helvetica Neue&quot;, &quot;Segoe UI&quot;, &quot;Fira Sans&quot;, Roboto, Oxygen, Ubuntu, &quot;Droid Sans&quot;, Arial, sans-serif" font-weight="400" font-size="16" text-anchor="start" visibility="hidden" fill="#6d6d6d" fill-opacity="1"/>
        <g id="IOS_copy" fill="#6d6d6d" fill-opacity="1">
          <path d="M144,183.4c-21.12,0 -38.4,-17.28 -38.4,-38.4c0,-21.12 17.28,-38.4 38.4,-38.4c21.12,0 38.4,17.28 38.4,38.4c0,21.12 -17.28,38.4 -38.4,38.4zM144,114.28c-16.896,0 -30.72,13.824 -30.72,30.72c0,16.896 13.824,30.72 30.72,30.72c16.896,0 30.72,-13.824 30.72,-30.72c0,-16.896 -13.824,-30.72 -30.72,-30.72zM140.16,141.928h3.456c2.688,0 4.224,-1.152 4.224,-3.84c0,-1.152 -0.384,-1.92 -1.152,-2.304c-0.768,-0.768 -1.536,-0.768 -2.688,-0.768c-1.152,0 -1.92,0.384 -2.688,0.768c-0.768,0.384 -1.152,1.152 -1.152,1.92h-7.296c0,-1.536 0.384,-3.072 1.536,-4.224c0.768,-1.152 2.304,-2.304 3.84,-3.072c1.536,-0.384 3.456,-0.768 5.376,-0.768c3.456,0 6.144,0.768 8.448,2.304c1.92,1.536 3.072,3.456 3.072,6.144c0,1.152 -0.384,2.688 -1.152,3.456c-0.768,1.152 -1.92,1.92 -3.84,2.688c1.536,0.384 3.072,1.536 3.84,2.688c0.768,1.152 1.536,2.688 1.536,4.224c0,2.688 -1.152,4.992 -3.072,6.528c-2.304,1.536 -4.992,2.304 -8.448,2.304c-1.92,0 -3.84,-0.384 -5.76,-1.152c-1.92,-0.768 -3.072,-1.92 -4.224,-3.072c-1.152,-0.768 -1.536,-2.304 -1.536,-4.224h7.296c0,0.768 0.384,1.536 1.152,2.304c0.768,0.768 1.92,1.152 3.072,1.152c1.152,0 2.304,-0.384 3.072,-1.152c0.768,-0.768 1.152,-1.536 1.152,-2.688c0,-1.536 -0.384,-2.688 -1.152,-3.072c-0.768,-0.768 -1.92,-0.768 -3.456,-0.768h-3.456z" id="svg_7" fill="#6d6d6d" fill-opacity="1">
          </path>
        </g>
      </g>
      <g fill="#6d6d6d" opacity="0" id="svg_8" fill-opacity="1">
        <g id="IOS" font-family="-apple-system, BlinkMacSystemFont, &quot;San Francisco&quot;, HelveticaNeue-Light, &quot;Helvetica Neue Light&quot;, &quot;Helvetica Neue&quot;, &quot;Segoe UI&quot;, &quot;Fira Sans&quot;, Roboto, Oxygen, Ubuntu, &quot;Droid Sans&quot;, Arial, sans-serif" font-weight="400" font-size="16" text-anchor="start" visibility="hidden" fill="#6d6d6d" fill-opacity="1"/>
        <g id="IOS_copy" fill="#6d6d6d" fill-opacity="1">
          <path d="M144,98.92c-25.344,0 -46.08,20.736 -46.08,46.08c0,25.344 20.736,46.08 46.08,46.08c25.344,0 46.08,-20.736 46.08,-46.08c0,-25.344 -20.736,-46.08 -46.08,-46.08z" id="svg_9" fill="#6d6d6d" fill-opacity="1">
          </path>
        </g>
      </g>
    </g>
  </g></svg>